<?xml version="1.0" encoding="utf-8"?>
<!-- Generator: Adobe Illustrator 16.0.0, SVG Export Plug-In . SVG Version: 6.00 Build 0)  -->
<!DOCTYPE svg PUBLIC "-//W3C//DTD SVG 1.1//EN" "http://www.w3.org/Graphics/SVG/1.1/DTD/svg11.dtd">
<svg version="1.1" id="Layer_1" xmlns="http://www.w3.org/2000/svg" xmlns:xlink="http://www.w3.org/1999/xlink" x="0px" y="0px"
	 width="512px" height="512px" viewBox="0 0 512 512" enable-background="new 0 0 512 512" xml:space="preserve">
<g>
	<path fill="#FFFFFF" d="M113.685,179.318c0,0.07-0.931,0.07-0.931-0.076c0-1.045-0.217-2.091-0.714-2.689
		c-0.784-0.749-1.856-1.348-6.158-1.348c-0.855,0-1.351,0.073-1.713,0.073c-0.146,0.448-0.209,2.021-0.209,4.563v9.57
		c0,7.331,0.356,8.234,0.855,8.456c0.504,0.293,1.503,0.522,3.077,0.67c0.143,0.074,0.143,0.971,0,0.971c-1.86,0-9.449,0-11.306,0
		c-0.14,0-0.14-0.895,0-0.971c1.572-0.146,2.575-0.377,3.074-0.67c0.506-0.224,0.795-1.127,0.795-8.456v-9.57
		c0-2.542,0-4.116-0.15-4.563c-0.356,0-1.07-0.073-1.933-0.073c-4.078,0-5.22,0.448-6.152,1.348
		c-0.64,0.598-1.002,1.794-1.217,2.765c0,0.146-0.926,0-0.926-0.146c0.22-2.021,0.426-4.418,0.57-5.839
		c0-0.068,0.076-0.147,0.212-0.147c1.437,0.226,4.509,0.451,11.382,0.451c9.446,0,10.886-0.225,11.595-0.529
		c0.146,0,0.212,0.076,0.212,0.154C114.044,174.837,113.978,177.151,113.685,179.318z"/>
	<path fill="#FFFFFF" d="M135.004,199.509c-0.143,0-0.143-0.895,0-0.971c1.574-0.146,2.218-0.377,2.714-0.67
		c0.507-0.224,0.864-1.127,0.864-8.456v-2.385h-14.377v2.385c0,7.331,0.348,8.234,0.856,8.456c0.496,0.293,1.142,0.522,2.715,0.67
		c0.148,0.074,0.148,0.971,0.074,0.971c-1.931,0-8.877,0-10.735,0c-0.076,0-0.14-0.895,0.075-0.971
		c1.569-0.146,2.215-0.377,2.714-0.67c0.499-0.224,0.789-1.127,0.789-8.456v-5.832c0-7.33-0.292-8.226-0.789-8.45
		c-0.499-0.292-1.145-0.518-2.714-0.746c-0.215,0-0.151-0.903-0.075-0.903c1.858,0,8.804,0,10.735,0
		c0.072,0,0.072,0.903-0.074,0.903c-1.571,0.229-2.219,0.454-2.715,0.746c-0.509,0.224-0.856,1.12-0.856,8.45v1.796h14.377v-1.796
		c0-7.33-0.36-8.226-0.864-8.45c-0.496-0.292-1.14-0.518-2.714-0.746c-0.143,0-0.143-0.903,0-0.903c1.858,0,8.802,0,10.663,0
		c0.146,0,0.146,0.903-0.071,0.903c-1.504,0.229-2.218,0.454-2.721,0.746c-0.435,0.224-0.79,1.12-0.79,8.45v5.832
		c0,7.331,0.354,8.234,0.79,8.456c0.503,0.293,1.217,0.522,2.721,0.67c0.216,0.074,0.216,0.971,0.071,0.971
		C143.803,199.509,136.862,199.509,135.004,199.509z"/>
	<path fill="#FFFFFF" d="M166.624,198.837c-0.287,0.448-0.5,0.752-1.504,0.752c-2.423,0-5.291-0.15-8.587-0.15
		c-2.573,0-4.149,0-6.936,0.07c-0.146,0-0.146-0.895,0-0.971c1.568-0.146,2.289-0.377,2.724-0.67
		c0.494-0.224,0.854-1.127,0.854-8.456v-5.832c0-7.33-0.36-8.226-0.854-8.45c-0.432-0.292-1.153-0.518-2.724-0.746
		c-0.146,0-0.146-0.903,0-0.903c3.076,0.082,7.94,0.082,10.519,0.082c3.29,0,5.154-0.082,6.298-0.149
		c0.21-0.079,0.285,0.068,0.285,0.149c-0.146,1.342-0.217,3.284-0.425,5.387c-0.075,0.227-1.004,0.146-1.004-0.076
		c0-1.047-0.218-2.027-0.79-2.694c-0.646-0.672-1.78-1.047-4.581-1.047c-1.569,0-2.644,0.076-3.074,0.076
		c-0.147,0.448-0.147,1.79-0.147,4.338v5.606h2.939c3.789,0,4.292-0.895,4.504-2.317c0.068-0.148,0.999-0.148,0.999,0
		c-0.068,1.118-0.21,5.909-0.21,6.953c0,0.148-1.004,0.148-1.004,0c0-0.755-0.147-1.793-0.574-2.167
		c-0.357-0.302-0.927-0.752-3.793-0.752h-2.864v2.544c0,4.865,0.366,7.105,0.862,7.701c0.5,0.449,1.005,0.756,3.363,0.756
		c2.432,0,3.787-0.599,4.509-1.424c0.572-0.596,1.001-1.422,1.286-2.771c0.074-0.221,0.787,0,0.713,0.151
		C167.271,195.921,166.914,198.239,166.624,198.837z"/>
	<path fill="#FFFFFF" d="M206.828,198.015c-0.502,0.748-3.159,1.868-7.868,1.868c-8.161,0-14.172-5.829-14.172-13.085
		c0-6.877,5.292-13.689,14.096-13.689c4.509,0,6.795,1.504,8.225,1.2c0.143-0.07,0.219,0.076,0.219,0.148
		c0.072,1.422,0.14,3.586,0.14,5.756c0,0.226-0.998,0.155-0.998-0.064c-0.074-1.053-0.722-2.398-1.501-3.22
		c-1.437-1.421-3.796-2.316-6.521-2.316c-7.151,0-9.725,5.308-9.725,11.064c0,6.5,4.009,12.562,10.3,12.562
		c2.937,0,4.865-0.529,6.226-2.17c0.788-1.044,1.288-2.318,1.646-3.509c0.072-0.223,0.941,0,0.941,0.148
		C207.684,194.797,207.186,197.487,206.828,198.015z"/>
	<path fill="#FFFFFF" d="M230.795,199.509c-0.144,0-0.144-0.895,0-0.971c1.57-0.146,2.218-0.377,2.712-0.67
		c0.507-0.224,0.86-1.127,0.86-8.456v-2.385h-14.384v2.385c0,7.331,0.357,8.234,0.863,8.456c0.5,0.293,1.141,0.522,2.715,0.67
		c0.14,0.074,0.14,0.971,0.074,0.971c-1.934,0-8.877,0-10.734,0c-0.072,0-0.14-0.895,0.065-0.971
		c1.579-0.146,2.227-0.377,2.727-0.67c0.493-0.224,0.785-1.127,0.785-8.456v-5.832c0-7.33-0.292-8.226-0.785-8.45
		c-0.5-0.292-1.148-0.518-2.727-0.746c-0.205,0-0.137-0.903-0.065-0.903c1.857,0,8.8,0,10.734,0c0.063,0,0.063,0.903-0.074,0.903
		c-1.571,0.229-2.215,0.454-2.715,0.746c-0.509,0.224-0.863,1.12-0.863,8.45v1.796h14.384v-1.796c0-7.33-0.353-8.226-0.86-8.45
		c-0.494-0.292-1.143-0.518-2.712-0.746c-0.144,0-0.144-0.903,0-0.903c1.853,0,8.797,0,10.653,0c0.14,0,0.14,0.903-0.066,0.903
		c-1.501,0.229-2.218,0.454-2.718,0.746c-0.432,0.224-0.791,1.12-0.791,8.45v5.832c0,7.331,0.359,8.234,0.791,8.456
		c0.5,0.293,1.217,0.522,2.718,0.67c0.21,0.074,0.21,0.971,0.066,0.971C239.595,199.509,232.65,199.509,230.795,199.509z"/>
	<path fill="#FFFFFF" d="M269.498,175.206c-0.357,0.299-0.713,1.044-0.713,8.374v6.73c0,4.792-3.868,9.573-10.088,9.573
		c-6.15,0-10.449-4.261-10.449-9.5v-6.803c0-7.33-0.35-8.226-0.855-8.45c-0.499-0.292-1.147-0.518-2.718-0.746
		c-0.149,0-0.149-0.903,0-0.903c1.856,0,9.013,0,10.876,0c0.063,0,0.141,0.903-0.074,0.903c-1.5,0.229-2.358,0.454-2.864,0.746
		c-0.5,0.224-0.848,1.12-0.848,8.45v5.759c0,5.007,2.924,8.226,7.864,8.226c4.869,0,7.158-3.285,7.158-7.775v-6.21
		c0-7.33-0.354-8.075-0.717-8.374c-0.428-0.368-1.353-0.593-2.926-0.825c-0.147,0-0.074-0.903,0-0.903c1.924,0,7.217,0,9.082,0
		c0.15,0,0.209,0.903,0,0.903C270.652,174.612,269.926,174.837,269.498,175.206z"/>
	<path fill="#FFFFFF" d="M299.832,199.436c-2.426,0-4.43-0.305-5.934-1.424c-2.07-1.342-4.227-3.961-7.373-9.425
		c-1.93,0.076-2.577,0-4.078-0.076v0.897c0,7.331,0.369,8.234,0.861,8.456c0.496,0.293,1.719,0.521,3.438,0.67
		c0.148,0.074,0.148,0.971,0.064,0.971c-1.858,0-9.588,0-11.445,0c-0.143,0-0.143-0.895,0.068-0.971
		c1.508-0.146,2.221-0.377,2.721-0.67c0.434-0.224,0.791-1.129,0.791-8.456v-5.829c0-7.33-0.357-8.226-0.791-8.45
		c-0.5-0.292-1.211-0.518-2.721-0.746c-0.211,0-0.211-0.903-0.068-0.903c1.791,0,3.867,0.082,5.363,0.082
		c1.438,0,3.008-0.082,4.799-0.082c5.938,0,9.305,3.299,9.305,6.584c0,3.217-2.295,5.835-5.078,7.555
		c5.303,7.999,8.146,10.692,11.225,10.692c0.357,0,0.858,0,1.154,0c0.137-0.073,0.273,0.902,0.207,0.902
		C301.479,199.363,300.764,199.436,299.832,199.436z M285.449,174.984c-1.35,0-2.217,0.221-2.359,0.521
		c-0.273,0.3-0.646,2.765-0.646,8.075c0,2.396,0.158,2.698,0.373,2.916c0.416,0.375,1.207,0.679,3.065,0.679
		c2.943,0,4.941-2.698,4.941-5.765C290.824,177.823,289.245,174.984,285.449,174.984z"/>
	<path fill="#FFFFFF" d="M323.445,198.015c-0.504,0.748-3.15,1.868-7.877,1.868c-8.159,0-14.168-5.829-14.168-13.085
		c0-6.877,5.297-13.689,14.099-13.689c4.511,0,6.794,1.504,8.226,1.2c0.148-0.07,0.216,0.076,0.216,0.148
		c0.068,1.422,0.137,3.586,0.137,5.756c0,0.226-0.992,0.155-0.992-0.064c-0.072-1.053-0.715-2.398-1.501-3.22
		c-1.438-1.421-3.795-2.316-6.515-2.316c-7.161,0-9.738,5.308-9.738,11.064c0,6.5,4.014,12.562,10.312,12.562
		c2.934,0,4.866-0.529,6.226-2.17c0.794-1.044,1.283-2.318,1.641-3.509c0.073-0.223,0.932,0,0.932,0.148
		C324.3,194.797,323.803,197.487,323.445,198.015z"/>
	<path fill="#FFFFFF" d="M347.116,199.509c-0.144,0-0.144-0.895,0-0.971c1.579-0.146,2.228-0.377,2.728-0.67
		c0.492-0.224,0.861-1.127,0.861-8.456v-2.385h-14.39v2.385c0,7.331,0.357,8.234,0.853,8.456c0.512,0.293,1.146,0.522,2.723,0.67
		c0.144,0.074,0.144,0.971,0.066,0.971c-1.928,0-8.856,0-10.729,0c-0.066,0-0.143-0.895,0.075-0.971
		c1.574-0.146,2.211-0.377,2.727-0.67c0.492-0.224,0.781-1.127,0.781-8.456v-5.832c0-7.33-0.289-8.226-0.781-8.45
		c-0.516-0.292-1.151-0.518-2.727-0.746c-0.218,0-0.147-0.903-0.075-0.903c1.873,0,8.809,0,10.729,0
		c0.076,0,0.076,0.903-0.066,0.903c-1.575,0.229-2.211,0.454-2.723,0.746c-0.494,0.224-0.853,1.12-0.853,8.45v1.796h14.39v-1.796
		c0-7.33-0.369-8.226-0.861-8.45c-0.5-0.292-1.153-0.518-2.728-0.746c-0.144,0-0.144-0.903,0-0.903c1.857,0,8.814,0,10.671,0
		c0.143,0,0.143,0.903-0.078,0.903c-1.498,0.229-2.211,0.454-2.711,0.746c-0.431,0.224-0.791,1.12-0.791,8.45v5.832
		c0,7.331,0.36,8.234,0.791,8.456c0.5,0.293,1.21,0.522,2.711,0.67c0.221,0.074,0.221,0.971,0.078,0.971
		C355.926,199.509,348.975,199.509,347.116,199.509z"/>
	<path fill="#FFFFFF" d="M386.179,199.88c-7.583,0-13.243-5.829-13.243-13.085c0-6.877,5.66-13.689,13.741-13.689
		c7.58,0,13.237,5.838,13.237,13.089C399.914,193.083,394.257,199.88,386.179,199.88z M385.883,174.755
		c-7.014,0-9.009,5.984-9.009,10.922c0,6.5,3.718,12.562,10.079,12.562c7.021,0,9.02-5.983,9.02-10.919
		C395.973,180.813,392.255,174.755,385.883,174.755z"/>
	<path fill="#FFFFFF" d="M421.156,178.871c0,0.146-1.001,0.146-1.001-0.15c0-0.97-0.204-1.875-0.794-2.471
		c-0.633-0.745-2.068-1.346-4.857-1.346c-1.574,0-3.014,0.083-3.436,0.15c-0.072,0.38-0.146,1.944-0.146,4.493v5.903h2.804
		c3.773,0,4.282-0.445,4.5-1.867c0.064-0.146,0.998-0.073,0.998,0c-0.069,1.121-0.219,5.167-0.219,6.283
		c0,0.076-0.997,0.076-0.997-0.073c0-0.755-0.143-1.574-0.573-1.952c-0.352-0.378-0.928-0.593-3.786-0.593h-2.727v2.167
		c0,7.331,0.361,8.234,0.861,8.457c0.5,0.292,1.716,0.521,3.438,0.669c0.141,0.074,0.141,0.971,0.067,0.971
		c-1.938,0-9.59,0-11.451,0c-0.146,0-0.146-0.895,0.078-0.971c1.498-0.146,2.211-0.377,2.711-0.669
		c0.434-0.225,0.791-1.128,0.791-8.457v-5.835c0-7.33-0.357-8.45-0.791-8.678c-0.5-0.292-1.21-0.521-2.711-0.666
		c-0.224-0.08-0.224-0.758-0.078-0.758c3.08,0.082,8.164,0.082,10.66,0.082c3.365,0,5.651-0.082,6.873-0.149
		c0.143-0.079,0.221,0.068,0.221,0.149C421.514,174.901,421.377,176.698,421.156,178.871z"/>
	<path fill="#FFFFFF" d="M24.383,229.118c-2.965,0.317-4.86,0.551-5.775,1.112c-0.979,0.55-1.824,2.696-1.588,17.146l0.229,21.497
		c0.148,13.883-2.968,19.994-16.175,26.426c-0.227,0.156-0.909-0.873-0.601-1.105c6.678-5.082,10.176-8.502,10.176-25.316V247.38
		c0-14.45-0.685-16.595-1.602-17.146c-0.907-0.561-2.885-0.792-5.848-1.112c-0.298-0.076-0.298-1.668-0.073-1.668
		c3.567,0,17.768,0,21.342,0C24.688,227.453,24.76,229.042,24.383,229.118z"/>
	<path fill="#FFFFFF" d="M65.451,278.001c-0.378,0.474-2.658,0.954-5.842,0.954c-4.562,0-6.913-0.248-13.215-0.248
		c-4.938,0-8.58,0.085-13.965,0.16c-0.229,0-0.229-1.588,0.073-1.666c2.962-0.314,4.699-0.559,5.617-1.104
		c0.913-0.562,1.598-2.701,1.598-17.138v-11.585c0-14.45-0.689-16.596-1.598-17.146c-0.917-0.561-2.657-0.792-5.617-1.112
		c-0.302-0.076-0.302-1.668-0.073-1.668c5.917,0.08,15.862,0.155,20.797,0.155c6.386,0,8.888-0.076,11.165-0.396
		c0.381,0,0.454,0.159,0.454,0.32c-0.155,2.776-0.381,6.748-0.834,11.034c-0.079,0.317-1.661,0.229-1.661-0.247
		c0-1.902-0.612-4.042-1.751-5.39c-1.598-1.665-3.422-2.38-7.75-2.38c-2.959,0-5.771,0-6.45,0.155
		c-0.228,0.794-0.304,3.735-0.304,8.733v11.259h6.225c7.208,0,7.366-2.134,7.817-4.998c0.073-0.316,1.674-0.23,1.674,0
		c-0.073,2.156-0.304,12.065-0.381,14.292c0,0.24-1.671,0.24-1.671-0.081c0-1.421-0.38-4.122-1.068-4.922
		c-0.683-0.707-1.066-1.184-6.457-1.184h-6.143v5.313c0,10.239,0.452,14.919,1.139,15.632c0.688,0.718,3.038,1.035,7.51,1.035
		c4.721,0,6.46-1.192,7.829-2.699c0.914-1.035,1.824-3.333,2.509-6.35c0.073-0.396,1.662-0.078,1.662,0.313
		C66.354,272.044,65.523,277.841,65.451,278.001z"/>
	<path fill="#FFFFFF" d="M90.349,279.906c-6.297,0-11.456-2.941-12.145-3.977c-0.073-0.154-0.839-8.412-0.45-12.449
		c0-0.398,1.661-0.479,1.747,0c0.147,3.008,1.588,7.057,2.646,8.721c1.905,3.016,5.172,5.003,9.799,5.003
		c5.243,0,8.13-3.656,8.13-9.363c0-12.539-19.975-13.174-19.975-27.612c0-7.542,5.845-14.047,13.82-14.047
		c5.768,0,6.605,1.902,9.871,1.507c0.302-0.077,0.455,0.082,0.455,0.243c0,2.773,0.146,7.455,0,11.741
		c-0.08,0.244-1.675,0.244-1.739-0.159c-0.231-3.172-0.916-5.948-2.359-7.695c-1.674-1.905-3.802-3.093-7.061-3.093
		c-4.104,0-7.215,3.726-7.215,8.642c0,10.721,20.269,13.331,20.269,27.065C106.142,274.348,98.021,279.906,90.349,279.906z"/>
	<path fill="#FFFFFF" d="M161.421,230.466c-0.607,0.554-1.289,2.46-1.289,16.91v13.321c0,9.525-6.98,18.65-19.966,18.65
		c-11.845,0-19.06-8.181-19.06-18.488v-13.483c0-14.45-0.684-16.596-1.597-17.146c-0.983-0.561-2.277-0.792-5.232-1.112
		c-0.307-0.076-0.307-1.668-0.073-1.668c3.567,0,16.924,0,20.495,0c0.23,0,0.23,1.592-0.083,1.668
		c-2.955,0.317-4.553,0.551-5.54,1.112c-0.907,0.55-1.586,2.696-1.586,17.146v12.05c0,8.729,5.24,15.951,15.257,15.951
		c9.338,0,13.965-7.379,13.965-15.072v-12.932c0-14.45-0.76-16.356-1.367-16.91c-0.831-0.797-2.571-1.028-5.614-1.348
		c-0.306-0.076-0.232-1.668,0-1.668c3.563,0,13.438,0,17,0c0.23,0,0.386,1.592,0,1.668
		C163.784,229.438,162.258,229.669,161.421,230.466z"/>
	<path fill="#FFFFFF" d="M186.787,279.906c-6.301,0-11.464-2.941-12.145-3.977c-0.075-0.154-0.841-8.412-0.46-12.449
		c0-0.398,1.671-0.479,1.757,0c0.146,3.008,1.582,7.057,2.645,8.721c1.902,3.016,5.171,5.003,9.799,5.003
		c5.235,0,8.121-3.656,8.121-9.363c0-12.539-19.966-13.174-19.966-27.612c0-7.542,5.845-14.047,13.819-14.047
		c5.769,0,6.607,1.902,9.872,1.507c0.3-0.077,0.455,0.082,0.455,0.243c0,2.773,0.15,7.455,0,11.741
		c-0.077,0.244-1.674,0.244-1.747-0.159c-0.229-3.172-0.909-5.948-2.351-7.695c-1.675-1.905-3.799-3.093-7.069-3.093
		c-4.093,0-7.207,3.726-7.207,8.642c0,10.721,20.266,13.331,20.266,27.065C202.577,274.348,194.456,279.906,186.787,279.906z"/>
	<path fill="#FFFFFF" d="M276.975,276.244c-0.223,0.404-5.307,3.74-15.104,3.74c-16.17,0-26.432-11.824-26.432-26.185
		c0-13.569,9.343-27.455,26.273-27.455c8.583,0,12.833,3.01,15.569,2.379c0.306-0.079,0.447,0.16,0.447,0.32
		c0.088,2.773,0.307,8.487,0.232,12.769c-0.075,0.317-1.675,0.317-1.754-0.154c-0.303-3.263-1.282-5.957-3.105-8.016
		c-2.277-2.464-7.062-4.523-12.145-4.523c-13.215,0-18.377,11.108-18.377,22.379c0,12.933,7.817,25.39,19.438,25.39
		c5.623,0,9.262-1.67,11.849-4.996c1.594-2.068,2.497-4.451,3.188-6.828c0.069-0.477,1.67-0.068,1.67,0.239
		C278.5,268.635,277.125,276.02,276.975,276.244z"/>
	<path fill="#FFFFFF" d="M323.672,278.867c-0.227,0-0.227-1.663,0.081-1.663c2.958-0.317,4.247-0.632,5.239-1.104
		c0.91-0.562,1.588-2.699,1.588-17.224v-4.84h-27.938v4.84c0,14.522,0.681,16.661,1.672,17.224c0.908,0.474,2.198,0.791,5.153,1.104
		c0.312,0,0.312,1.663,0.079,1.663c-3.566,0-16.554,0-20.119,0c-0.222,0-0.222-1.663,0.078-1.663
		c2.971-0.317,4.322-0.632,5.241-1.104c0.903-0.562,1.597-2.699,1.597-17.224v-11.5c0-14.526-0.697-16.596-1.597-17.146
		c-0.919-0.561-2.271-0.792-5.241-1.112c-0.306-0.076-0.306-1.668-0.078-1.668c3.565,0,16.553,0,20.119,0
		c0.229,0,0.229,1.592-0.079,1.668c-2.958,0.317-4.249,0.551-5.153,1.112c-0.991,0.55-1.672,2.62-1.672,17.146v3.723h27.938v-3.723
		c0-14.526-0.684-16.596-1.588-17.146c-0.986-0.561-2.281-0.792-5.239-1.112c-0.308-0.076-0.308-1.668-0.081-1.668
		c3.58,0,16.553,0,20.125,0c0.228,0,0.228,1.592-0.078,1.668c-2.961,0.317-4.25,0.551-5.242,1.112
		c-0.909,0.55-1.588,2.62-1.588,17.146v11.5c0,14.522,0.682,16.661,1.588,17.224c0.989,0.474,2.281,0.791,5.242,1.104
		c0.309,0,0.309,1.663,0.078,1.663C340.222,278.867,327.252,278.867,323.672,278.867z"/>
	<path fill="#FFFFFF" d="M401.193,278.867c-6.611,0-10.184-0.791-13.137-2.854c-3.874-2.777-7.978-8.177-14.124-19.047
		c-3.723,0.079-5.237,0.079-8.127-0.081v2.074c0,14.438,0.685,16.576,1.595,17.138c0.985,0.551,3.264,0.707,6.603,1.105
		c0.306,0.075,0.306,1.663,0.073,1.663c-3.562,0-17.92,0-21.486,0c-0.221,0-0.3-1.589,0.078-1.663
		c2.961-0.316,4.256-0.562,5.166-1.105c0.986-0.562,1.585-2.699,1.585-17.138v-11.585c0-14.45-0.599-16.596-1.585-17.146
		c-0.91-0.561-2.208-0.792-5.166-1.112c-0.378-0.076-0.305-1.668-0.078-1.668c3.348,0,7.214,0.155,10.029,0.155
		c2.807,0,5.844-0.155,9.258-0.155c11.314,0,17.016,6.588,17.016,12.621c0,6.348-3.811,11.427-9.114,14.839
		c10.772,16.817,16.85,22.219,21.944,22.219c2.955,0,4.779-0.479,5.695-1.028c0.904-0.562,1.591-2.703,1.591-17.139v-11.585
		c0-14.45-0.687-16.596-1.591-17.146c-0.916-0.561-2.888-0.792-5.855-1.112c-0.299-0.076-0.299-1.668-0.077-1.668
		c3.574,0,17.774,0,21.347,0c0.3,0,0.3,1.592-0.087,1.668c-2.958,0.317-4.857,0.551-5.763,1.112
		c-0.988,0.55-1.604,2.696-1.604,17.146v11.585c0,14.436,0.614,16.576,1.604,17.139c0.904,0.549,2.805,0.791,5.763,1.103
		c0.387,0.078,0.387,1.666,0.087,1.666C419.263,278.867,404.838,278.867,401.193,278.867z M371.734,230.15
		c-2.586,0-4.854,0.396-5.094,0.715c-0.378,0.474-0.828,4.999-0.828,16.51c0,4.752,0.147,5.622,0.45,5.945
		c0.541,0.561,2.658,0.878,6.304,0.878c6.225,0,9.106-4.921,9.106-11.108C381.674,235.47,379.018,230.15,371.734,230.15z"/>
	<path fill="#FFFFFF" d="M444.382,279.906c-6.298,0-11.464-2.941-12.148-3.977c-0.07-0.154-0.826-8.412-0.451-12.449
		c0-0.398,1.678-0.479,1.748,0c0.147,3.008,1.594,7.057,2.651,8.721c1.902,3.016,5.166,5.003,9.804,5.003
		c5.237,0,8.114-3.656,8.114-9.363c0-12.539-19.957-13.174-19.957-27.612c0-7.542,5.845-14.047,13.809-14.047
		c5.771,0,6.604,1.902,9.875,1.507c0.306-0.077,0.448,0.082,0.448,0.243c0,2.773,0.156,7.455,0,11.741
		c-0.073,0.244-1.664,0.244-1.736-0.159c-0.233-3.172-0.92-5.948-2.359-7.695c-1.667-1.905-3.799-3.093-7.057-3.093
		c-4.104,0-7.219,3.726-7.219,8.642c0,10.721,20.272,13.331,20.272,27.065C460.176,274.348,452.049,279.906,444.382,279.906z"/>
	<path fill="#FFFFFF" d="M510.592,240.229c-0.076,0.393-1.661,0.393-1.661-0.158c0-1.991-0.229-5.793-1.526-7.221
		c-1.517-1.67-4.628-3.02-11.312-3.02c-1.739,0-2.652,0-3.415,0.159c-0.218,0.791-0.306,4.605-0.306,9.603v19.369
		c0,14.438,0.687,16.576,1.592,17.139c0.913,0.549,2.815,0.791,5.854,1.104c0.3,0.075,0.3,1.663,0.066,1.663
		c-3.636,0-17.764,0-21.408,0c-0.224,0-0.224-1.588,0.157-1.663c2.958-0.317,4.854-0.562,5.771-1.104
		c0.985-0.562,1.589-2.699,1.589-17.139v-19.369c0-5-0.067-8.812-0.307-9.603c-0.762-0.159-2.051-0.159-3.793-0.159
		c-7.141,0-9.561,0.795-11.313,3.02c-1.219,1.508-1.981,4.284-2.499,7.379c-0.078,0.557-1.681,0.316-1.681-0.158
		c0.462-4.127,0.916-10.16,1.143-12.861c0-0.241,0.387-0.39,0.91-0.314c2.649,0.473,7.521,0.871,20.729,0.871
		c18.146,0,19.822-0.557,21.185-1.028c0.457-0.159,0.835,0.082,0.835,0.317C511.205,230.07,511.051,236.019,510.592,240.229z"/>
	<path fill="#FFFFFF" d="M44.584,333.059c-7.587,0-13.239-5.822-13.239-13.082c0-6.877,5.652-13.688,13.741-13.688
		c7.576,0,13.237,5.838,13.237,13.095C58.323,326.264,52.662,333.059,44.584,333.059z M44.293,307.934
		c-7.015,0-9.013,5.983-9.013,10.926c0,6.507,3.717,12.56,10.087,12.56c7.011,0,9.017-5.981,9.017-10.916
		C54.388,313.986,50.663,307.934,44.293,307.934z"/>
	<path fill="#FFFFFF" d="M79.785,312.047c0,0.162-1.005,0.162-1.005-0.143c0-0.98-0.215-1.865-0.779-2.473
		c-0.646-0.757-2.083-1.348-4.874-1.348c-1.571,0-3.008,0.075-3.437,0.163c-0.067,0.362-0.141,1.937-0.141,4.478v5.909h2.792
		c3.793,0,4.301-0.45,4.509-1.872c0.073-0.148,1.003-0.068,1.003,0c-0.076,1.125-0.215,5.156-0.215,6.275
		c0,0.072-0.996,0.072-0.996-0.069c0-0.741-0.143-1.571-0.572-1.942c-0.355-0.369-0.928-0.596-3.796-0.596h-2.725v2.17
		c0,7.332,0.36,8.223,0.865,8.448c0.499,0.291,1.71,0.519,3.428,0.666c0.146,0.07,0.146,0.972,0.073,0.972
		c-1.927,0-9.588,0-11.448,0c-0.14,0-0.14-0.9,0.076-0.972c1.501-0.147,2.207-0.375,2.716-0.666
		c0.432-0.227,0.787-1.116,0.787-8.448v-5.838c0-7.328-0.355-8.453-0.787-8.678c-0.509-0.297-1.214-0.525-2.716-0.675
		c-0.216-0.07-0.216-0.736-0.076-0.736c3.08,0.063,8.154,0.063,10.657,0.063c3.37,0,5.653-0.063,6.873-0.147
		c0.143-0.077,0.217,0.081,0.217,0.147C80.14,308.085,79.997,309.877,79.785,312.047z"/>
	<path fill="#FFFFFF" d="M113.536,332.018c-0.292,0.453-0.711,0.748-1.716,0.748c-2.432,0-5.297-0.146-8.591-0.146
		c-2.574,0-4.434,0-7.299,0.064c-0.073,0-0.073-0.901,0.07-0.97c1.577-0.147,2.224-0.375,2.721-0.669
		c0.5-0.229,0.792-1.12,0.792-8.452v-5.838c0-7.323-0.292-8.229-0.792-8.45c-0.498-0.281-1.145-0.518-2.721-0.746
		c-0.143,0-0.143-0.886-0.07-0.886c1.86,0,8.873,0,10.734,0c0.067,0,0.067,0.886-0.064,0.886c-1.578,0.229-2.222,0.465-2.725,0.746
		c-0.499,0.223-0.789,1.127-0.789,8.45v5.838c0,4.866,0.356,7.101,0.853,7.705c0.436,0.447,1.008,0.747,3.297,0.747
		c2.216,0,3.719-0.604,4.645-1.722c0.865-1.048,1.504-2.772,1.792-4.04c0.073-0.229,0.996-0.073,0.996,0.15
		C114.459,327.529,113.89,331.418,113.536,332.018z"/>
	<path fill="#FFFFFF" d="M132.424,332.688c-0.075,0-0.143-0.901,0-0.973c1.214-0.066,2.01-0.375,2.01-0.963
		c0-0.678-0.507-2.023-2.798-7.711c0.073,0-7.802,0-7.869,0c-1.86,5.091-2.289,6.586-2.289,7.48c0,0.676,0.572,1.051,2.216,1.199
		c0.217,0.066,0.143,0.969,0,0.969c-1.136,0-6.438,0-8.298,0c-0.137,0-0.137-0.901,0-0.969c1.219-0.068,1.937-0.301,2.506-0.75
		c0.788-0.595,1.72-2.09,3.933-8.371l2.155-5.839c1.214-3.358,2.501-6.879,3.506-10.018c0.07-0.291,1.638-0.291,1.786,0
		c1.14,3.514,2.217,6.36,3.57,10.018l2.227,5.839c3.004,7.553,3.438,8.004,4.146,8.451c0.717,0.442,1.287,0.598,2.436,0.67
		c0.14,0.066,0.072,0.969,0,0.969C139.791,332.688,134.283,332.688,132.424,332.688z M127.699,312.047l-3.227,9.127h6.521
		L127.699,312.047z"/>
	<path fill="#FFFFFF" d="M163.329,312.497c0,0.073-0.93,0.073-0.93-0.075c0-1.038-0.216-2.089-0.713-2.688
		c-0.788-0.752-1.869-1.344-6.161-1.344c-0.854,0-1.354,0.065-1.716,0.065c-0.14,0.444-0.216,2.021-0.216,4.569v9.572
		c0,7.332,0.365,8.223,0.86,8.449c0.5,0.291,1.502,0.518,3.082,0.666c0.14,0.07,0.14,0.973,0,0.973c-1.858,0-9.449,0-11.304,0
		c-0.147,0-0.147-0.901,0-0.973c1.569-0.148,2.571-0.375,3.07-0.666c0.5-0.227,0.791-1.117,0.791-8.449v-9.572
		c0-2.549,0-4.125-0.143-4.569c-0.354,0-1.072-0.065-1.929-0.065c-4.077,0-5.225,0.446-6.152,1.344
		c-0.647,0.599-1.004,1.789-1.22,2.763c0,0.151-0.922,0-0.922-0.147c0.206-2.017,0.426-4.416,0.566-5.838
		c0-0.063,0.072-0.148,0.214-0.148c1.432,0.228,4.509,0.453,11.375,0.453c9.447,0,10.88-0.227,11.597-0.531
		c0.146,0,0.216,0.072,0.216,0.162C163.687,308.023,163.616,310.333,163.329,312.497z"/>
	<path fill="#FFFFFF" d="M189.872,312.497c0,0.073-0.929,0.073-0.929-0.075c0-1.038-0.216-2.089-0.714-2.688
		c-0.79-0.752-1.867-1.344-6.159-1.344c-0.855,0-1.364,0.065-1.717,0.065c-0.144,0.444-0.216,2.021-0.216,4.569v9.572
		c0,7.332,0.365,8.223,0.864,8.449c0.494,0.291,1.5,0.518,3.074,0.666c0.144,0.07,0.144,0.973,0,0.973c-1.863,0-9.446,0-11.303,0
		c-0.14,0-0.14-0.901,0-0.973c1.578-0.148,2.576-0.375,3.082-0.666c0.5-0.227,0.779-1.117,0.779-8.449v-9.572
		c0-2.549,0-4.125-0.143-4.569c-0.354,0-1.069-0.065-1.935-0.065c-4.076,0-5.219,0.446-6.151,1.344
		c-0.646,0.599-1.009,1.789-1.211,2.763c0,0.151-0.938,0-0.938-0.147c0.224-2.017,0.432-4.416,0.572-5.838
		c0-0.063,0.074-0.148,0.215-0.148c1.435,0.228,4.51,0.453,11.38,0.453c9.449,0,10.876-0.227,11.586-0.531
		c0.146,0,0.217,0.072,0.217,0.162C190.223,308.023,190.151,310.333,189.872,312.497z"/>
	<path fill="#FFFFFF" d="M210.895,332.018c-0.285,0.453-0.498,0.748-1.5,0.748c-2.436,0-5.3-0.146-8.584-0.146
		c-2.586,0-4.152,0-6.941,0.064c-0.146,0-0.146-0.901,0-0.97c1.572-0.147,2.283-0.375,2.716-0.669
		c0.498-0.229,0.861-1.12,0.861-8.452v-5.838c0-7.323-0.363-8.229-0.861-8.45c-0.433-0.281-1.144-0.518-2.716-0.746
		c-0.146,0-0.146-0.886,0-0.886c3.071,0.063,7.936,0.063,10.521,0.063c3.283,0,5.144-0.063,6.292-0.147
		c0.214-0.078,0.292,0.081,0.292,0.147c-0.153,1.348-0.224,3.293-0.438,5.388c-0.075,0.224-1.006,0.147-1.006-0.078
		c0-1.048-0.213-2.008-0.783-2.692c-0.641-0.679-1.79-1.049-4.578-1.049c-1.579,0-2.648,0.086-3.079,0.086
		c-0.141,0.443-0.141,1.791-0.141,4.33v5.607h2.928c3.792,0,4.292-0.896,4.512-2.321c0.072-0.144,1.004-0.144,1.004,0
		c-0.073,1.129-0.219,5.908-0.219,6.961c0,0.144-1.006,0.144-1.006,0c0-0.741-0.14-1.801-0.563-2.17
		c-0.358-0.3-0.939-0.742-3.794-0.742h-2.862v2.537c0,4.866,0.356,7.101,0.855,7.705c0.509,0.447,1.004,0.747,3.37,0.747
		c2.435,0,3.787-0.604,4.505-1.425c0.573-0.589,1-1.423,1.288-2.771c0.063-0.221,0.781,0,0.713,0.154
		C211.54,329.105,211.185,331.418,210.895,332.018z"/>
	<path fill="#FFFFFF" d="M241.592,332.619c-2.429,0-4.436-0.305-5.932-1.428c-2.078-1.344-4.227-3.959-7.375-9.422
		c-1.932,0.076-2.583,0-4.084-0.072v0.896c0,7.332,0.369,8.224,0.864,8.452c0.497,0.294,1.72,0.521,3.435,0.669
		c0.143,0.067,0.143,0.97,0.066,0.97c-1.857,0-9.588,0-11.447,0c-0.137,0-0.137-0.901,0.075-0.97
		c1.505-0.147,2.219-0.375,2.714-0.669c0.432-0.229,0.79-1.12,0.79-8.452v-5.838c0-7.323-0.357-8.229-0.79-8.45
		c-0.495-0.281-1.208-0.518-2.714-0.746c-0.212,0-0.212-0.886-0.075-0.886c1.782,0,3.87,0.063,5.371,0.063
		c1.432,0,2.998-0.063,4.796-0.063c5.938,0,9.3,3.287,9.3,6.574c0,3.214-2.292,5.825-5.08,7.551
		c5.294,7.996,8.146,10.688,11.229,10.688c0.354,0,0.853,0,1.147,0c0.141-0.069,0.282,0.91,0.22,0.91
		C243.238,332.538,242.522,332.619,241.592,332.619z M227.212,308.16c-1.361,0-2.218,0.23-2.362,0.516
		c-0.279,0.309-0.646,2.774-0.646,8.08c0,2.402,0.146,2.699,0.369,2.92c0.423,0.381,1.204,0.676,3.069,0.676
		c2.939,0,4.938-2.697,4.938-5.766C232.578,310.999,231,308.16,227.212,308.16z"/>
	<path fill="#FFFFFF" d="M255.974,320.281c-0.154,0.221-0.435,0.299-0.935,0.299l-4.8,0.076c-4.578,0-5.512,0.666-5.939,1.716
		c-0.069,0.147-0.928-0.072-0.928-0.228c0.069-0.9,0.207-2.764,0.355-3.586l5.876-0.076c4.569,0,5.29-0.758,5.855-1.721
		c0.077-0.148,0.866,0.077,0.866,0.15C256.255,317.809,256.111,320.057,255.974,320.281z"/>
	<path fill="#FFFFFF" d="M283.157,328.725c-2.726,2.765-5.728,3.963-10.736,3.963c-1.788,0-4.575-0.062-6.079-0.062
		c-1.431,0-3.576,0.062-5.299,0.062c-0.143,0-0.143-0.901,0-0.973c1.576-0.148,2.223-0.375,2.73-0.666
		c0.494-0.227,0.853-1.117,0.853-8.449v-5.838c0-7.326-0.356-8.229-0.853-8.453c-0.51-0.281-1.154-0.518-2.73-0.746
		c-0.143,0-0.143-0.886,0-0.886c1.723,0,3.871,0.062,5.299,0.062c1.504,0,5.148-0.062,6.873-0.062
		c8.008,0,14.018,5.451,14.018,12.708C287.232,322.826,285.583,326.264,283.157,328.725z M272.066,308.16
		c-2.433,0-3.08,0.367-3.359,0.742c-0.213,0.306-0.576,2.173-0.576,7.705v5.985c0,4.866,0.363,6.951,0.858,7.554
		c0.721,0.748,1.288,0.969,3.362,0.969c7.729,0,11.022-3.514,11.022-11.064C283.369,313.917,279.582,308.16,272.066,308.16z"/>
	<path fill="#FFFFFF" d="M304.841,332.688c-0.069,0-0.14-0.901,0-0.973c1.216-0.066,2.005-0.375,2.005-0.963
		c0-0.678-0.504-2.023-2.793-7.711c0.067,0-7.795,0-7.871,0c-1.854,5.091-2.289,6.586-2.289,7.48c0,0.676,0.573,1.051,2.224,1.199
		c0.209,0.066,0.143,0.969,0,0.969c-1.151,0-6.445,0-8.306,0c-0.149,0-0.149-0.901,0-0.969c1.205-0.068,1.93-0.301,2.496-0.75
		c0.791-0.595,1.719-2.09,3.941-8.371l2.146-5.839c1.213-3.358,2.504-6.879,3.502-10.018c0.071-0.291,1.648-0.291,1.789,0
		c1.146,3.514,2.219,6.36,3.576,10.018l2.221,5.839c3.002,7.553,3.439,8.004,4.149,8.451c0.716,0.442,1.283,0.598,2.438,0.67
		c0.137,0.066,0.063,0.969,0,0.969C312.209,332.688,306.703,332.688,304.841,332.688z M300.117,312.047l-3.223,9.127h6.516
		L300.117,312.047z"/>
	<path fill="#FFFFFF" d="M334.026,308.023c-1.007,0.504-1.782,1.635-3.79,5.002l-2.146,3.588c-0.928,1.488-1.854,3.136-2.723,4.631
		v1.35c0,7.332,0.354,8.223,0.786,8.452c0.5,0.294,1.512,0.521,3.086,0.669c0.146,0.067,0.146,0.969,0,0.969
		c-1.858,0-9.45,0-11.31,0c-0.147,0-0.147-0.9,0-0.969c1.573-0.148,2.579-0.375,3.071-0.669c0.506-0.229,0.791-1.12,0.791-8.452
		v-1.199c-0.85-1.569-1.719-3.067-2.789-4.787l-2.217-3.584c-2.51-4.043-3.15-4.78-3.871-5.006
		c-0.646-0.312-1.429-0.387-2.574-0.461c-0.14,0-0.14-0.967,0-0.967c1.864,0,7.658,0,9.521,0c0.147,0,0.21,0.967,0,0.967
		c-0.857,0.074-1.288,0.15-1.646,0.375c-0.284,0.15-0.143,0.741,2.356,4.715l3.868,6.648l4.009-6.572
		c2.079-3.445,2.432-4.332,1.864-4.699c-0.363-0.234-0.867-0.387-1.938-0.465c-0.146,0-0.078-0.969,0-0.969c1.216,0,6.519,0,8.377,0
		c0.137,0,0.137,0.969,0,0.969C335.609,307.637,334.6,307.788,334.026,308.023z"/>
	<path fill="#FFFFFF" d="M356.406,333.059c-3.722,0-6.295-1.939-6.37-2.379c-0.285-1.354-0.285-3.668-0.073-5.769
		c0-0.147,0.926-0.224,0.926,0c0.15,1.571,0.728,2.993,1.304,3.884c1.138,1.576,2.646,2.693,4.93,2.693
		c2.865,0,4.297-1.943,4.297-4.715c0-5.902-10.529-6.946-10.529-13.597c0-4.127,3.734-7.036,7.376-7.036
		c2.999,0,3.793,1.123,5.229,0.758c0.143-0.08,0.285,0.065,0.285,0.143c-0.078,1.416,0,3.438-0.078,5.607
		c0,0.147-0.928,0.147-0.998,0c-0.072-1.266-0.644-2.834-1.282-3.515c-0.861-0.887-2.292-1.425-3.517-1.425
		c-2.211,0-3.85,1.566-3.85,4.043c0,5.009,10.864,6.954,10.864,13.531C364.92,330.299,360.408,333.059,356.406,333.059z"/>
	<path fill="#FFFFFF" d="M383.093,332.688c-0.078,0-0.146-0.901,0-0.973c1.204-0.066,1.995-0.375,1.995-0.963
		c0-0.678-0.5-2.023-2.789-7.711c0.073,0-7.798,0-7.865,0c-1.86,5.091-2.295,6.586-2.295,7.48c0,0.676,0.573,1.051,2.221,1.199
		c0.212,0.066,0.14,0.969,0,0.969c-1.152,0-6.448,0-8.303,0c-0.143,0-0.143-0.901,0-0.969c1.21-0.068,1.933-0.301,2.496-0.75
		c0.797-0.595,1.726-2.09,3.941-8.371l2.148-5.839c1.21-3.358,2.498-6.879,3.502-10.018c0.069-0.291,1.639-0.291,1.78,0
		c1.154,3.514,2.23,6.36,3.586,10.018l2.217,5.839c3.011,7.553,3.443,8.004,4.15,8.451c0.719,0.442,1.283,0.598,2.438,0.67
		c0.143,0.066,0.062,0.969,0,0.969C390.464,332.688,384.951,332.688,383.093,332.688z M378.363,312.047l-3.217,9.127h6.51
		L378.363,312.047z"/>
	<path fill="#FFFFFF" d="M392.884,332.688c-0.073,0-0.073-0.901,0.075-0.973c1.571-0.148,2.577-0.375,2.999-0.666
		c0.506-0.227,0.858-1.117,0.858-8.449v-5.838c0-7.326-0.354-8.229-0.858-8.453c-0.425-0.281-1.431-0.518-2.999-0.746
		c-0.148,0-0.148-0.886-0.075-0.886c1.858,0,9.518,0,11.37,0c0.078,0,0.078,0.886-0.062,0.886c-1.579,0.229-2.583,0.465-3.006,0.746
		c-0.506,0.226-0.862,1.127-0.862,8.453v5.838c0,7.332,0.356,8.224,0.862,8.449c0.426,0.291,1.433,0.518,3.006,0.666
		c0.146,0.07,0.146,0.973,0.062,0.973C402.4,332.688,394.742,332.688,392.884,332.688z"/>
	<path fill="#FFFFFF" d="M434.178,308.391c-0.369,0.285-0.791,1.041-0.722,8.365v5.838c0,3.365,0,6.951,0.21,10.09
		c0,0.225-1.207,0.31-1.426,0.078l-18.961-20.043l0.143,9.875c0.066,6.725,0.572,7.998,1.141,8.449
		c0.357,0.291,1.714,0.666,2.789,0.666c0.216,0,0.144,0.973,0,0.973c-2.005,0-7.726,0-9.575,0c-0.159,0-0.159-0.902,0-0.973
		c1.562-0.148,2.493-0.375,2.918-0.744c0.369-0.291,0.791-1.039,0.653-8.371l-0.071-5.838c0-3.361,0-6.943-0.213-10.085
		c0-0.224,1.354-0.313,1.432-0.081l19.031,20.184l-0.144-10.018c-0.066-7.324-0.643-8.145-1.076-8.449
		c-0.498-0.373-1.423-0.597-3.079-0.748c-0.207,0-0.138-0.885,0-0.885c1.86,0,7.801,0,9.668,0c0.137,0,0.209,0.885,0,0.885
		C435.312,307.788,434.6,308.023,434.178,308.391z"/>
	<path fill="#FFFFFF" d="M462.653,312.497c0,0.073-0.932,0.073-0.932-0.075c0-1.038-0.218-2.089-0.731-2.688
		c-0.777-0.752-1.854-1.344-6.146-1.344c-0.854,0-1.357,0.065-1.713,0.065c-0.15,0.444-0.219,2.021-0.219,4.569v9.572
		c0,7.332,0.357,8.223,0.864,8.449c0.5,0.291,1.504,0.518,3.077,0.666c0.147,0.07,0.147,0.973,0,0.973c-1.867,0-9.45,0-11.314,0
		c-0.14,0-0.14-0.901,0-0.973c1.582-0.148,2.586-0.375,3.086-0.666c0.494-0.227,0.785-1.117,0.785-8.449v-9.572
		c0-2.549,0-4.125-0.137-4.569c-0.363,0-1.085-0.065-1.939-0.065c-4.072,0-5.225,0.446-6.148,1.344
		c-0.651,0.599-1.004,1.789-1.217,2.763c0,0.151-0.928,0-0.928-0.147c0.207-2.017,0.425-4.416,0.564-5.838
		c0-0.063,0.077-0.148,0.221-0.148c1.426,0.228,4.506,0.453,11.373,0.453c9.447,0,10.879-0.227,11.597-0.531
		c0.146,0,0.213,0.072,0.213,0.162C463.006,308.023,462.936,310.333,462.653,312.497z"/>
	<path fill="#FFFFFF" d="M471.941,333.059c-3.719,0-6.295-1.939-6.367-2.379c-0.288-1.354-0.288-3.668-0.076-5.769
		c0-0.147,0.931-0.224,0.931,0c0.154,1.571,0.729,2.993,1.292,3.884c1.151,1.576,2.645,2.693,4.937,2.693
		c2.858,0,4.299-1.943,4.299-4.715c0-5.902-10.526-6.946-10.526-13.597c0-4.127,3.729-7.036,7.371-7.036
		c3.005,0,3.796,1.123,5.228,0.758c0.146-0.08,0.288,0.065,0.288,0.143c-0.066,1.416,0,3.438-0.066,5.607
		c0,0.147-0.938,0.147-1.001,0c-0.075-1.266-0.648-2.834-1.289-3.515c-0.863-0.887-2.292-1.425-3.508-1.425
		c-2.222,0-3.862,1.566-3.862,4.043c0,5.009,10.881,6.954,10.881,13.531C480.461,330.299,475.952,333.059,471.941,333.059z"/>
</g>
</svg>
